/* XPM */
static char *d8152d11ab0948d086768bdd48e11171doR48ZE6g0SwHHrr[] = {
/* columns rows colors chars-per-pixel */
"32 32 9 1 ",
"  c None",
". c #1C1515",
"X c #271A1F",
"o c #2F1F29",
"O c #39292E",
"+ c #3A393E",
"@ c #433131",
"# c #4E4D52",
"$ c #64616A",
/* pixels */
"                                ",
"                                ",
"                                ",
"                                ",
"                                ",
"                                ",
"                                ",
"       ####                     ",
"     ##++++##                   ",
"    #++++++++$                  ",
"   #++++++++++$                 ",
"   #++++++++++#        ####     ",
"   +$++++++++#+       #++++$    ",
"   X+$$++++##+X      #++++++$   ",
"  Xoo++$$$$++ooX     #++++++#   ",
"  XooOO++++OOOoX    X+$++++#+X  ",
" +ooOO#@OO@@$@oo+  XXX+$$##+XXX ",
" +oOO@$@@##@#OOo+  +oOO+@$$OOo+ ",
" X+OO@$$@$@@@OO+X  X+OO@$$@OO+X ",
" Xo$#@@@@@@@@$$oX  Xo$$@@@@##XX ",
"  ooo########ooo   +oOO@@@@OOo+ ",
"  ooOOOO$$OOOOoo   X+OO@$$@OO+X ",
"  XoO@$@OO@$$OoX   Xo$$@@@@$$oX ",
"  .oOO$@@@@$$Oo.    XoO$###OOX  ",
"   .XOOOOOOOOX.     .XooOOooX.  ",
"    .XXXXXXXX.       .XXooXX.   ",
"     ........         ......    ",
"                                ",
"                                ",
"                                ",
"                                ",
"                                "
};
