/* XPM */
static char *b94ed66eb3c648cff9a326e893080f32QYBCzywXHOAKS3Nb[] = {
/* columns rows colors chars-per-pixel */
"32 32 142 2 ",
"   c None",
".  c #070707",
"X  c #080807",
"o  c gray3",
"O  c #090908",
"+  c #090909",
"@  c #0A0808",
"#  c #0A0909",
"$  c #0A0A09",
"%  c #0B0A09",
"&  c gray4",
"*  c #0B0A0A",
"=  c #0B0B0A",
"-  c #0C0A0A",
";  c #0C0B0A",
":  c #0C0B0B",
">  c #0D0C0B",
",  c #0E0D0B",
"<  c #0E0D0C",
"1  c #0F0D0D",
"2  c #0F0E0C",
"3  c #0F0E0D",
"4  c #110C0C",
"5  c #110D0D",
"6  c #120D0D",
"7  c #100E0D",
"8  c #130E0D",
"9  c #100E0E",
"0  c #110F0E",
"q  c #120F0E",
"w  c #140E0E",
"e  c #150F0F",
"r  c #11100E",
"t  c #12100E",
"y  c #12100F",
"u  c #12110F",
"i  c #121110",
"p  c #131210",
"a  c #141110",
"s  c #141211",
"d  c #151211",
"f  c #151311",
"g  c #151312",
"h  c #161312",
"j  c #161411",
"k  c #151412",
"l  c #161512",
"z  c #171512",
"x  c #161513",
"c  c #171513",
"v  c #171613",
"b  c #171514",
"n  c #171614",
"m  c #181413",
"M  c #181513",
"N  c #181613",
"B  c #181614",
"V  c #181714",
"C  c #191714",
"Z  c #181615",
"A  c #181715",
"S  c #191715",
"D  c #1B1615",
"F  c #1A1715",
"G  c #1A1815",
"H  c #1A1816",
"J  c #1B1916",
"K  c #1E1917",
"L  c #1F1917",
"P  c #1D1A17",
"I  c #1D1B18",
"U  c #1F1A18",
"Y  c #1E1B18",
"T  c #1E1C19",
"R  c #1F1D19",
"E  c #201D1A",
"W  c #201E1A",
"Q  c #211E1A",
"!  c #211E1B",
"~  c #211F1C",
"^  c #221F1C",
"/  c #22201C",
"(  c #23201C",
")  c #23211C",
"_  c #23201D",
"`  c #24221D",
"'  c #24211E",
"]  c #24221E",
"[  c #25221E",
"{  c #25221F",
"}  c #26231F",
"|  c #27241F",
" . c #272420",
".. c #282520",
"X. c #292521",
"o. c #292622",
"O. c #2A2622",
"+. c #2C2621",
"@. c #2D2722",
"#. c #2C2823",
"$. c #2F2923",
"%. c #2C2824",
"&. c #2D2924",
"*. c #2F2A24",
"=. c #2E2A25",
"-. c #2F2A25",
";. c #2F2B25",
":. c #302A24",
">. c #312A24",
",. c #322A24",
"<. c #302B26",
"1. c #312B26",
"2. c #332C25",
"3. c #312C26",
"4. c #322C26",
"5. c #332F29",
"6. c #372F28",
"7. c #36322B",
"8. c #37322B",
"9. c #37332B",
"0. c #3A3028",
"q. c #3B3029",
"w. c #39312A",
"e. c #3B332B",
"r. c #3C3129",
"t. c #3D332B",
"y. c #3E342B",
"u. c #3E342C",
"i. c #3F352C",
"p. c #40362D",
"a. c #41372E",
"s. c #41382F",
"d. c #413A30",
"f. c #443B32",
"g. c #454135",
"h. c #48443A",
"j. c #534E42",
"k. c #534F43",
"l. c #544F44",
"z. c #545044",
"x. c #555045",
"c. c #555145",
/* pixels */
"                                                                ",
"        q t t g v g v v v g g v n g g v n h v n n g             ",
"        ` r.q.r.q.5.1.1.1.r.r.,.r.r.4.6.1.1.;.1.9.P             ",
"        ..r.r.d.g.g.l.l.x.g.g.9.g.g.x.x.h.l.l.l.x.G             ",
"         .r.;.;.;.;.;.o.;.;.;.` ;.` ;.;.o.;.%...;.P             ",
"        ) r.r... .^ ^ ^ ^ ^ ) )  .) ^ ^ ^ ^  . . .G             ",
"        ` r.r.! n v V V n V M G V v v V V V D V v v             ",
"        ..r.r.n ; ; e : o o . @ o . * 1 h g g o . .             ",
"        ..r.q.g . . * q u X > g e g g . : 1 . ' ) ;.q.          ",
"        ^ r.;.v q g . * * . X > 1 q * o i i .  .5.;.r.          ",
"        ` r.;.v ; g . o > * * o * * o i T ^ . =.q.;.q.          ",
"        ..r.q.v ; * . * * > . . * G G g ^ ` o ;.q.;.q.          ",
"         .q.q.M ; ; . . . . . . G ^ G i ' ^ 1 ;.r.;.r.          ",
"        ) q.r.V ; ; . * * G G * P ) ` G ) ^ : ;.r.r.r.          ",
"        ` r.r.V * * @ ; > G G t T ^ T G ^ ;.; ;.1.q.r.          ",
"        | r.r.V . 8 8 8 q G P i V ` 1 V ^ ;.* ;.;.r.r.          ",
"        | r.q.V o e 8 m * G G g T ^ q V ^ ;.* ;.;.q.r.          ",
"        ! @.@.D 8 8 8 V * T G g V ^ D V ^ ;.: ^ ;.q.r.          ",
"        ` q.1.D 8 8 8 P * G J g V E ` H ` ;.4 ! 1.q.q.          ",
"        | r.@.E 6 e u G = G G g T T ' V ^ ` > ! 1.;.j.          ",
"         .r.1.E 6 w w D ; G T y V K ' V ^ ' : ! ;.;.l.          ",
"        ^ r.;.D 6 w e D * V V q T V ^ V ' ^ : %.;.;.x.          ",
"        ` q.>.D 6 e 8 T * P D - V T ^ V ^ ' : ^ o.o.l.          ",
"         .q.1.E 6 8 8 g o P e - e D V V ' ^ : ' ^ ` j.          ",
"        ` r.1.E 6 e w e o w w - 8 e V m ^ ^ : ^ ' ^ ..          ",
"        ^ r.#.,.,.o.X.o.O.>.>.+.,.1.o.>.o.o.o.o...T             ",
"        ` u.9.q.e.e.s.u.p.e.p.1.e.p.s.e.e.s.7.5.f.H             ",
"        T %.;.;.;.;.;.;.>.%.1. .%.>.;.;.o.;.;.;.;.H             ",
"        T ;.;.;.;.) ` ^  . .`  .;.^  .^ ^  .o.o.;.J             ",
"        G T T T T T T T T T T T T T T T T T T T T J             ",
"                                                                ",
"                                                                "
};
