/* XPM */
static char *dc75037c98b943f896d237c5801687d64wA4kYPbwuOVcXBE[] = {
/* columns rows colors chars-per-pixel */
"32 32 206 2 ",
"   c #050300",
".  c #0C0300",
"X  c #040B01",
"o  c #0C0C03",
"O  c #0E0D0A",
"+  c #100600",
"@  c #120E06",
"#  c #190800",
"$  c #130E0B",
"%  c #0F1102",
"&  c #0C120C",
"*  c #131306",
"=  c #181607",
"-  c #14130B",
";  c #19150C",
":  c #16190B",
">  c #1A1B0C",
",  c #171906",
"<  c #160E11",
"1  c #0F1A11",
"2  c #161511",
"3  c #1A1513",
"4  c #151B13",
"5  c #1B1A14",
"6  c #1B1619",
"7  c #1E1C1A",
"8  c #171B1A",
"9  c #22130C",
"0  c #221614",
"q  c #211A16",
"w  c #2C1B14",
"e  c #231D1B",
"r  c #2A1B1A",
"t  c #351E16",
"y  c #1D2106",
"u  c #1D241C",
"i  c #232315",
"p  c #23211C",
"a  c #2C231D",
"s  c #29291C",
"d  c #2B2E13",
"f  c #36281D",
"g  c #2C331C",
"h  c #211C20",
"j  c #1A2525",
"k  c #1F2C25",
"l  c #1C252C",
"z  c #1E2A2B",
"x  c #172323",
"c  c #1D2730",
"v  c #1E2A34",
"b  c #1F2D38",
"n  c #262323",
"m  c #2C2525",
"M  c #2D2924",
"N  c #20272F",
"B  c #2E2B2A",
"V  c #232D29",
"C  c #332C25",
"Z  c #322D2C",
"A  c #392D2C",
"S  c #293129",
"D  c #393127",
"F  c #34312E",
"G  c #3C372B",
"H  c #323D2F",
"J  c #242C33",
"K  c #262F3A",
"L  c #2A2F39",
"P  c #3B2D34",
"I  c #263031",
"U  c #2B3436",
"Y  c #2D3A33",
"T  c #26313B",
"R  c #2C343C",
"E  c #2E383A",
"W  c #343433",
"Q  c #3C3235",
"!  c #313C33",
"~  c #33353C",
"^  c #3E343B",
"/  c #333A3C",
"(  c #3A3A3C",
")  c #422D2C",
"_  c #47322A",
"`  c #412E34",
"'  c #413335",
"]  c #4B3536",
"[  c #42353B",
"{  c #433A3D",
"}  c #4B3D3D",
"|  c #46393A",
" . c #513738",
".. c #553E3E",
"X. c #573A32",
"o. c #354030",
"O. c #3D473B",
"+. c #4B443C",
"@. c #434134",
"#. c #4F5235",
"$. c #575139",
"%. c #64483D",
"&. c #2E3541",
"*. c #343542",
"=. c #3B3743",
"-. c #363846",
";. c #3D3B43",
":. c #3C3B49",
">. c #423C42",
",. c #4A3E45",
"<. c #423E4C",
"1. c #563D41",
"2. c #354442",
"3. c #3F4E4A",
"4. c #3A4946",
"5. c #454243",
"6. c #4C4344",
"7. c #404C40",
"8. c #47414B",
"9. c #4B424A",
"0. c #534244",
"q. c #5C4443",
"w. c #544A45",
"e. c #5A4B44",
"r. c #53464C",
"t. c #58474F",
"y. c #564C4C",
"u. c #5B4B4E",
"i. c #4C584E",
"p. c #56514D",
"a. c #5D534C",
"s. c #524751",
"d. c #5B4B52",
"f. c #514A51",
"g. c #5C5353",
"h. c #5B5058",
"j. c #505C52",
"k. c #654B4D",
"l. c #674946",
"z. c #64534D",
"x. c #6D524E",
"c. c #665949",
"v. c #7A5E4B",
"b. c #715B4E",
"n. c #604C53",
"m. c #635456",
"M. c #655B54",
"N. c #695C53",
"B. c #64565A",
"V. c #69565C",
"C. c #655B5A",
"Z. c #6C5D5D",
"A. c #765850",
"S. c #735C5D",
"D. c #7A5D5B",
"F. c #7D5F57",
"G. c #6D615C",
"H. c #73655B",
"J. c #7A605C",
"K. c #736252",
"L. c #787E5A",
"P. c #6A5C62",
"I. c #695A60",
"U. c #745C60",
"Y. c #6E6060",
"T. c #736364",
"R. c #7A6663",
"E. c #7A6A65",
"W. c #77656C",
"Q. c #7C6669",
"!. c #7C696C",
"~. c #756B61",
"^. c #7A6B72",
"/. c #805A59",
"(. c #84665A",
"). c #8C6D61",
"_. c #836A6C",
"`. c #856867",
"'. c #916D68",
"]. c #867368",
"[. c #947265",
"{. c #93736A",
"}. c #9B786B",
"|. c #836D72",
" X c #8B7375",
".X c #8D7975",
"XX c #8D7A7B",
"oX c #897476",
"OX c #937576",
"+X c #957C71",
"@X c #997B73",
"#X c #A47F6D",
"$X c #A17A75",
"%X c #9C897A",
"&X c #A3826F",
"*X c #A68472",
"=X c #AC8577",
"-X c #B78E7D",
";X c #BB927E",
":X c #B5907D",
">X c #A67F80",
",X c #BC9482",
"<X c #C59582",
"1X c #CBA08F",
"2X c #C5A392",
"3X c #D7AB99",
/* pixels */
"7 < 8 5 6 5 O - 2 O m r.y.[ [ 9.f.>.=.R K b v c c c l l l l j x ",
"n 6 n 7 3 3 - > 7 & 7 } g.9.^ ,.9.=.~ &.&.b b v c c l l l z l j ",
"h h B n - 2 @ 2 2 - 3 Q g.,.Z P >.[ ~ *.L &.K J c c N N J I J V ",
"6 h B u 2 2 - : 2 5 B r.I.r.P ^ [ [ ~ =.*.&.K K v J J L I U U J ",
"6 7 n 8 - 2 5 5 & 7 { P.W.V.,.>.P [ =.=.*.&.L K L U R R E E E U ",
"6 7 5 - $ 2 5 5 2 2 W I.^.V.,.` P [ >.=.*.*.&.L ~ / / E E / E E ",
"5 6 5 - & : 5 5 7 8 h 1.^.I.>.` [ ,.,.<.:.-.*.*.~ / O.R U E E U ",
"5 5 e 5 5 2 5 2 h < 6 >.^.V.>.` } r.s.<.<.:.*.*.( ;.-.E Y U U U ",
"5 3 e - - 5 & 5 5 2 < 9.^.W.P t.d.V.B.<.<.<.=.;.;.2./ U / U U / ",
"Z 5 6 5 e 5 - e 4 - 3 r.>X|.>.n.U.m.d.s.,.8.8.;.{ 6.+.( ( ( ( ( ",
"F p - m F 5 - 2 7 $ m u.|._.` 1.U.I.h.t.s.,.6.{ 9.6.>.( ( 5.+.5.",
"m m e S W 7 5 O 6 @ Q m.^._.1.1.U._.V.1.d.d.u.g.C.y.r.9.6.+.6.6.",
"n m p F m 2 p 5 & $ w.T.|._.k.l.S.OXU.n.m.R.T.!.T.Y.C.M.p.w.y.w.",
"h e n { M - 7 e - 3 u.R._.Q.n.] k._.oXQ.E.!.R.Z.E.!.Y.0.Q e.G.N.",
"m 6 W y.F - 5 3 2 7 0.S._.`.U. . .S.oX X].N.e.e.R.Z.0.r q w.~.K.",
"P h [ p.Z 2 6 & n M 6.V. XOXOXl.l._..X XH.) w ] E.a.A $ ; p.~.c.",
"6 m C 3 @ 5 8 & O Z S.`.'.>X'.%.l.J.`.XXN.0 # C Z.U.3 r ; a a.G.",
"3 5 r 3 5 5 8 8   e n.D.D.$X=X(.l.x.`.E.` 3 0 h M.P.< - q | p.( ",
"2 e e e 7 7 e n $ A R.{.(.'.}.(.A.z.E.} $ ; r e r.C.5 @ - B F * ",
"a m p - - C A r r ) /.@X[.*X;X&X@XJ.J.f . q e a w.g.e - 2 - 3 - ",
"G i * X ; a.E...l.l.D.'.[.-X3X3X(.q.S.a . 5 q C p.+.- @ - o o O ",
"@.s : o * e.].`.{.{.}.*X&X=X<X<XX.w M.D . @ 3 p q 5     - @ O O ",
"i 5 : % o f b.{.(.'.[.*X:X;X<X;X_ 9 e.a o @ @ @ @ @ - - % - O o ",
"- : - - - t $.).[.).v.(.&X,X1X2Xt + C   . 5 O o > * - o X - - O ",
"- o O O 2 D z.]..X(.%X].%.v.2X).# @ * @ $ - - * - * o % & % & O ",
"X   O $ 2 e C a.+.G a.N.K.$.K.f # @ - @ - = ; * - @ % % - * - * ",
"i * o $ 5 - o 4 u 1 & 1 g u u X = - * * * - - = - * % % * * - ; ",
"g , X - 8 5 & & k v x 1 : y s : * * * O @ * = = , * % * * * - > ",
"#.y o 3 2 2 1 4 z 2.2.o.x o.O.1 - * * * * * * - = * , : - * - = ",
"L.d * 3 - - 1 1 O.4.4.3.Y j.i.- - - * * - = = = = = , , : - * - ",
"#., o - - 5 5 u o.Y k O.o.O.S o : - * : : - = = = * * , = * @ - ",
", * 5 6 o o * * u u X Y g y o y - * * : - = * = * * * o * * @ @ "
};
