/* XPM */
static char *dcda037e1d1948ecef9441e9968e9d1fw3Ufw7U05FIabECw[] = {
/* columns rows colors chars-per-pixel */
"32 32 229 2 ",
"   c #030100",
".  c #030B03",
"X  c #0C0B03",
"o  c #040E0D",
"O  c #0A0E0B",
"+  c #130E05",
"@  c #06100E",
"#  c #0B120E",
"$  c #0F1207",
"%  c #13140D",
"&  c #1D150B",
"*  c #16160C",
"=  c #050F11",
"-  c #080D10",
";  c #051213",
":  c #0A1413",
">  c #0E1A13",
",  c #0A1719",
"<  c #061919",
"1  c #151612",
"2  c #1C1C14",
"3  c #141B1C",
"4  c #141916",
"5  c #291A0E",
"6  c #271D10",
"7  c #3B1E0F",
"8  c #07231F",
"9  c #1A251C",
"0  c #1C2A1B",
"q  c #13231C",
"w  c #242B1D",
"e  c #28251A",
"r  c #392918",
"t  c #22311E",
"y  c #022623",
"u  c #0B2422",
"i  c #0B2924",
"p  c #0C2C2B",
"a  c #062C28",
"s  c #172825",
"d  c #0E312D",
"f  c #13312D",
"g  c #0C3230",
"h  c #143731",
"j  c #252923",
"k  c #392E27",
"l  c #243324",
"z  c #2B352B",
"x  c #2C392D",
"c  c #2A3626",
"v  c #33352D",
"b  c #343425",
"n  c #263B36",
"m  c #373A33",
"M  c #4A2D1A",
"N  c #47301E",
"B  c #54311B",
"V  c #4E3423",
"C  c #4B3B26",
"Z  c #40392C",
"A  c #563B27",
"S  c #433C37",
"D  c #5B3F31",
"F  c #29413B",
"G  c #3E413A",
"H  c #5B432C",
"J  c #4B4336",
"K  c #474439",
"L  c #574737",
"P  c #694E3C",
"I  c #644837",
"U  c #774D34",
"Y  c #734F39",
"T  c #7C543C",
"R  c #6E492E",
"E  c #2B4D47",
"W  c #374942",
"Q  c #34524B",
"!  c #2F5651",
"~  c #4D514B",
"^  c #57574A",
"/  c #4B5D57",
"(  c #5C5C53",
")  c #565C54",
"_  c #524E43",
"`  c #6A5D4D",
"'  c #695643",
"]  c #755644",
"[  c #795A47",
"{  c #655E53",
"}  c #644E40",
"|  c #5E6156",
" . c #79634E",
".. c #67655A",
"X. c #736355",
"o. c #786A58",
"O. c #7A5B63",
"+. c #5E756E",
"@. c #6E6F67",
"#. c #776B65",
"$. c #6C7469",
"%. c #7D7465",
"&. c #76766B",
"*. c #687B76",
"=. c #7C7E71",
"-. c #86583C",
";. c #8A5E44",
":. c #805D49",
">. c #825F41",
",. c #86644E",
"<. c #9A6A4C",
"1. c #956449",
"2. c #856754",
"3. c #8D6A55",
"4. c #8C6D5A",
"5. c #826D5B",
"6. c #936A53",
"7. c #9D6D59",
"8. c #83725C",
"9. c #977259",
"0. c #A27255",
"q. c #A3765D",
"w. c #AD7C5E",
"e. c #897869",
"r. c #947A65",
"t. c #9C7D6B",
"y. c #9A7867",
"u. c #917476",
"i. c #A47C64",
"p. c #A57D6A",
"a. c #A87C66",
"s. c #79837B",
"d. c #7C887E",
"f. c #9C826C",
"g. c #94836F",
"h. c #8E8D7C",
"j. c #868379",
"k. c #9C8473",
"l. c #998977",
"z. c #9F937D",
"x. c #AB826B",
"c. c #A9856B",
"v. c #B3866B",
"b. c #AB8976",
"n. c #AB8D7B",
"m. c #A58875",
"M. c #B58B77",
"N. c #B6917A",
"B. c #AC917C",
"V. c #C89A7B",
"C. c #9B7E83",
"Z. c #898C83",
"A. c #998785",
"S. c #8C9389",
"D. c #97978B",
"F. c #9C9E94",
"G. c #949E96",
"H. c #899D92",
"J. c #A88687",
"K. c #AB9384",
"L. c #AF9A8C",
"P. c #A59788",
"I. c #B39583",
"U. c #BA9784",
"Y. c #BA9986",
"T. c #B59C8D",
"R. c #BA9D8C",
"E. c #B49887",
"W. c #A58D90",
"Q. c #A89A96",
"!. c #BA9E91",
"~. c #9CA397",
"^. c #BBA18E",
"/. c #B3A28E",
"(. c #A3A49C",
"). c #A9A99B",
"_. c #B9A294",
"`. c #BDAC9C",
"'. c #B9A894",
"]. c #BFB39D",
"[. c #9EAEA6",
"{. c #AAA9A3",
"}. c #B7A9A7",
"|. c #AAB1A4",
" X c #A7B1A8",
".X c #BBB5AB",
"XX c #B7B7A9",
"oX c #BBB8B1",
"OX c #C99E87",
"+X c #C1A38E",
"@X c #CBA289",
"#X c #C4A693",
"$X c #C5AA96",
"%X c #C9AA95",
"&X c #C3AB9A",
"*X c #CBAC9C",
"=X c #CCA391",
"-X c #D1AA96",
";X c #CAB19D",
":X c #D0B19B",
">X c #E8BA99",
",X c #CEAFA0",
"<X c #C4AFA1",
"1X c #CBB5A5",
"2X c #D2B5A3",
"3X c #D2BBAB",
"4X c #DDBDAB",
"5X c #D7B9A3",
"6X c #C2BDB7",
"7X c #E1BEA8",
"8X c #BEC1B5",
"9X c #BEC4B8",
"0X c #ECC19F",
"qX c #C3C3B4",
"wX c #C5C6BA",
"eX c #DBC8B7",
"rX c #E8C4AC",
"tX c #E9CBBA",
"yX c #F1C6A6",
"uX c #CBCBC1",
"iX c #CFC6C1",
"pX c #CED4C8",
"aX c #DAD5CA",
"sX c #D9D3CA",
"dX c #EBD8C8",
"fX c #EFDBD1",
"gX c #E9E5DD",
"hX c #FFE1D1",
"jX c #F6EDE8",
/* pixels */
"7.q.v.0.3.L * 0 u *.[.s.s.Z.iXjXgXsXaXaX8X).S.d.$.XXpX9XwXwX9X|.",
"M.M.V.N.f.' 0 s p n +.Z.Z.#.oXsXsXsXsXwXqX8X~.H.H.9XpXwXuXwXqX8X",
"v.V.>X>X>Xm.G > F 8 F H. Xj.oXgXgXgXiXqXqX|.G.|.$.|.9XwXiX6X.XQ.",
"0.V.>XyXrX'.| 0 E d a +.[.d.{.gXpXaXeXdXqXg.s.s.) ).wX8X6X<XQ.A.",
"[ v.@X@X:X].s.t Q E y h / W K (.)..X`.3Xl.L L t S.6XuX}.{.W.C.C.",
"H ,.w.@XrXtXz.F Q ! g y i 8 s s.) %.[  .H H h.| G.F.oXoX}.W.C.J.",
"M C  .-XhXfX;X| n Q g d p f h *.^ A.y.,.P o./.d.(.Q.iXoXQ.}.C.u.",
"r r H N.7X;X;XD.z E 8 f p p u W x j.m.[ T %.D.h.@.@.F.{ S W.C.O.",
"C 8.V.B.x.E.!.L.K 0 s i p d i u > e /.B.8.P.|.&.m _ v 6 1 k #.C.",
"z.f.g.o.2.6.4.o.Z % ; < u i y f 0 m e.g.` %.~.G.~ z 6 2 # 1 k S ",
"]./.V.'.*X#Xn.t.%._ G f p p a y 8 x P D.).F.s./ 9 O 1 % 1 3 v ..",
"'.'.;X$X:X4X2X&X&XW...1 @ < a i n 0 w h.).F.) .   . 2 1 3 m ) @.",
"].].&XT.R.*X#X&XK.P.#.K m s u s x 9 b Z.z.s.G . $ e m _ { ) ~ z ",
"/./._.#X*X#XR.&XT._.P.P.A.m   X j 1 c o.s.@.J J %.g.l.(.W.$.| K ",
"L.L.K.K.E.!.#X,X;X1XT.K.K.X.` { S e & b X.u.K.<XK.K.l.u.o.{ @.=.",
"T._.K.e.t.n.t.4._.rX:XE.$XeXdX3X3X`./.T.3X3XtX3XK.k.k.8.X.` L J ",
"' k.R.J.D 7 ] 2.7 L t.!.*X:X2X2X3X3X3X2X3X3X2X2X#X#XY.n.f.y.r.r.",
"M V [ #X,XK.E.,X[ t.R.*X*X*X*X+X_.+XY.Y.OX%X%X%X%X#X%X-X5X7XrXrX",
"2.D V ] n.R.b.t.U.#X,X#XY.I.M.c.x.v.a.q.a.p.b.b.M.M.I.U.OX-X=X-X",
"m.n.t.[ P ] [ ] r.p.b.b.c.x.x.w.q.w.0.6.6.6.6.6.y.y.p.p.p.a.a.M.",
"C  .g.z.5.] n.;X2.9.y.a.q.0.0.0.<.<.-.-.U >.:.:.] :.3.;.;.;.1.1.",
"e b J L L H e.k.t.t.p.p.q.6.1.-.;.R A B M M V V A D I I Y U U U ",
"c x w X   + 5 5 L I [ 2.6.6.>.T H r r k & + + X & & 5 r N C A A ",
"w l c % O $   + & 5 k J } P A r 5 X 6 z 1 O 1 - O - O O $ & 6 6 ",
"l z 0 : O - O O @ @ $ O % + $ + $ - 4 3 3 , , ; = = ; o o O O . ",
"l z 9 @ o = = = @ ; < ; ; : : @ - - 4 3 3 , < ; ; ; ; ; = = o ; ",
"c c s @ = = = ; ; ; < ; < ; ; ; # O : 4 4 : : O = = - - o = - - ",
"z c 9 @ o = = ; ; ; ; < ; , : @ @ @ : 4 : : : : = - ; - - - - - ",
"l l q o = = = ; ; ; : : : : # @ ; ; ; < ; ; , ; o ; ; - = = = - ",
"l t > o = = = = @ < : : : : % @ : ; ; ; ; ; ; ; ; ; - = - = = = ",
"t t : o ; ; = = ; ; < ; , : , ; : = = : = : : : - ; ; ; = o - o ",
"0 0 : o ; ; ; = ; ; < < ; , ; ; : o - - - = : : ; = - ; o ; O o "
};
