/* XPM */
static char *_370d19c402840bea843f95ee00d3b7ckMn9ThVGT3Cq2Rfq[] = {
/* columns rows colors chars-per-pixel */
"32 32 218 2 ",
"   c #1B160E",
".  c #151513",
"X  c #1A1613",
"o  c #1C1A16",
"O  c #1D1C1B",
"+  c #161818",
"@  c #281609",
"#  c #2B1A0E",
"$  c #231C14",
"%  c #221E19",
"&  c #251A12",
"*  c #2E2115",
"=  c #24211D",
"-  c #2B231B",
";  c #33251B",
":  c #352B1D",
">  c #3B2A1D",
",  c #352212",
"<  c #3F301D",
"1  c #1F2120",
"2  c #252421",
"3  c #2B2523",
"4  c #2A2924",
"5  c #2D2C2B",
"6  c #332A23",
"7  c #3A2D24",
"8  c #332E2B",
"9  c #392E28",
"0  c #2F302C",
"q  c #34322D",
"w  c #3B322B",
"e  c #3D3623",
"r  c #302E31",
"t  c #353433",
"y  c #3A3633",
"u  c #3B3934",
"i  c #3C3D3C",
"p  c #383939",
"a  c #492E1A",
"s  c #48321C",
"d  c #443325",
"f  c #42352B",
"g  c #43392D",
"h  c #4A392B",
"j  c #4C362A",
"k  c #553925",
"l  c #423730",
"z  c #433B34",
"x  c #4C3D33",
"c  c #423E3A",
"v  c #513F31",
"b  c #3F413C",
"n  c #5E432D",
"m  c #4B4234",
"M  c #44423E",
"N  c #4A423C",
"B  c #534234",
"V  c #5C4533",
"C  c #52453B",
"Z  c #56483C",
"A  c #5B483C",
"S  c #5B4934",
"D  c #644D3C",
"F  c #674933",
"G  c #66513D",
"H  c #7A583E",
"J  c #3E3E40",
"K  c #454443",
"L  c #4B4542",
"P  c #4B4844",
"I  c #474649",
"U  c #4A4A4C",
"Y  c #534B44",
"T  c #5A4D43",
"R  c #524D4B",
"E  c #5C5047",
"W  c #5C524C",
"Q  c #56514B",
"!  c #5C5651",
"~  c #575654",
"^  c #614F43",
"/  c #6B5645",
"(  c #625349",
")  c #6A5649",
"_  c #6B5B4C",
"`  c #675746",
"'  c #745E4E",
"]  c #745A46",
"[  c #6C5D53",
"{  c #655850",
"}  c #735E51",
"|  c #78634E",
" . c #6C635C",
".. c #6A6057",
"X. c #756455",
"o. c #7B6454",
"O. c #7C6954",
"+. c #73655A",
"@. c #79675B",
"#. c #7C6A5B",
"$. c #74685E",
"%. c #6C6763",
"&. c #7E6E63",
"*. c #766C60",
"=. c #7D7264",
"-. c #7C736C",
";. c #7F7B78",
":. c #82624A",
">. c #8C684E",
",. c #836955",
"<. c #8C6C53",
"1. c #846D5C",
"2. c #866B55",
"3. c #83725C",
"4. c #846F61",
"5. c #837263",
"6. c #8A7565",
"7. c #8E7B67",
"8. c #8C7B6E",
"9. c #84776A",
"0. c #927B64",
"q. c #907665",
"w. c #867B73",
"e. c #917E70",
"r. c #8D8077",
"t. c #8B847A",
"y. c #928172",
"u. c #9A8476",
"i. c #93847B",
"p. c #9B8779",
"a. c #9D8B7B",
"s. c #9C8B6F",
"d. c #A7886D",
"f. c #A68B78",
"g. c #A6917E",
"h. c #AA947D",
"j. c #BC987F",
"k. c #898481",
"l. c #978B82",
"z. c #99938C",
"x. c #92989B",
"c. c #A48E81",
"v. c #A29383",
"b. c #AC998A",
"n. c #AA9787",
"m. c #A79B93",
"M. c #B39C8A",
"N. c #BCA58A",
"B. c #A5A39D",
"V. c #BAA698",
"C. c #AAA8A8",
"Z. c #B5ACA7",
"A. c #BBB3AA",
"S. c #B4B2AC",
"D. c #ACB2B5",
"F. c #B5B5B4",
"G. c #BCB5B2",
"H. c #B9B8B6",
"J. c #BDBCBB",
"K. c #B3BABD",
"L. c #C5A38B",
"P. c #C5AA96",
"I. c #C8AB99",
"U. c #C4B29E",
"Y. c #C8B6A7",
"T. c #D4BAA7",
"R. c #C3BFBA",
"E. c #C7BDB4",
"W. c #CAC3BB",
"Q. c #C6C1BA",
"!. c #D7C6B8",
"~. c #E0D1BE",
"^. c #BDC2C5",
"/. c #C9C7C5",
"(. c #C6C7C7",
"). c #D4CBC6",
"_. c #D6D2CD",
"`. c #DBD3CD",
"'. c #DED0C7",
"]. c #D8DAD9",
"[. c #CAD2D6",
"{. c #E6D6C8",
"}. c #F3DAC7",
"|. c #E2DCD5",
" X c #E3DED9",
".X c #EEE1D4",
"XX c #E3E1DD",
"oX c #ECE3DB",
"OX c #E5E1D6",
"+X c #FFECDB",
"@X c #F5E6D8",
"#X c #FFF1DD",
"$X c #D6DEE0",
"%X c #CBDCE3",
"&X c #D8E3E8",
"*X c #DDEAF0",
"=X c #E4E4E3",
"-X c #EDEAE4",
";X c #EBEDEB",
":X c #E5E7E7",
">X c #F3EEEA",
",X c #F6E9E0",
"<X c #EEF0EF",
"1X c #F2F2EE",
"2X c #FCF4EC",
"3X c #FAF4E8",
"4X c #E3EDF0",
"5X c #EFF2F1",
"6X c #F4F5F3",
"7X c #FBF6F3",
"8X c #F4FAF6",
"9X c #FFFDF6",
"0X c #FEFAF5",
"qX c #F9F9F9",
"wX c #FFFEF9",
"eX c #FEFEFE",
"rX c #FBFBFB",
"tX c #F7F9F8",
/* pixels */
":X^.D.$X;XXXS.].7X6XrXrXrXqXqXqX;X<X*X%X&X&XK.x.&X*X&X&X_.D.[.&X",
"=XK.K.=X5X-XR.oX0X7XqXrXeXeXwX6X>X5X4X&X*X*X(.D.&X$X[.]._.z.x.D.",
"=XJ.(.6X6X6X`.-XrXwX7X7X7X>X|.`.R.J.F.C.D.S.B.l.B.B.B.F.Y.i.k.B.",
"`.Z./.>X-X>X{. XrX0X>X X`./.G.Z.R.R.J.H.H.R.Y.m.W._._.OX,X'./.&X",
"Z.k.C. X|.7X-X7X0XrXrXqX6X6X6X6X6X6X8X8X5X1XOXW.1X8X5X1X2XoX_.=X",
".XE.'.wX7XwX2XwXrXrXeXeXeXeXeXeXrXtX8X1X;X;X|.A.OXXXXX:X-X`./.XX",
"2X'.|.wX7X9X X2X0XwXtXrXrXrXtX6XtX<X;X;X;X1XoXS.XX:X:X=X].'.Z.S.",
"2X{.|.wX9X9X.X7X7X0XwXwXwXwXwX9X9X9X9X9X9X9X@XV.m.G.(.G.A.W.z.w.",
"R.m.w.S.).!.~.+X#X#X@X@X.X.X.X@X`.#X{.{.!.!.U.s.m E  . .*.y.7.=.",
"R N y { =.y.a.V.V.N.g.n.A.U.h.s.v.v.3.| o.g.N.f.7.3.=.$.=.=.` ` ",
"y c c R $.=.O.0.O.| ` _ 3.y.=.` Z _ ] | ,.h.N.d.s.=.=.y.z.p._ O.",
"p y Y %.t.i.+.X.` ` D B m m m C ..=.3.3.` | 0.0.S s < : B S d #.",
"~ P %.w.k.k.$.` Y Y P N u 0 q b ..*.X.+.x d / 7.D s f Y 3.e.) 4.",
"8 5 M M c N Y m x N N K b u b N ! _ ` $.T 9 v @.T ; z [ l.b.} j ",
"3 8 u 8 3 8 Y N N Y K u q 0 q M W E g Y L 9 l [ C d c f a / / , ",
"3 8 t 8 l l W Y q u q 8 q u b M N Y g E ( z 6 x 9 z E 8 @ ' q.a ",
"$ 8 q q f q E c 0 0 t 5 J K y I Q N w : u.6.v T Y q 8 3 # ' I.>.",
"2 q q w 8 - c t t r t J J p u R I b w ; 6.h.] (  .c $ 6 @ G T.>.",
"t 0 t 5 - 2 y c b p p I i 8 c R K 8 w > X.P.>.D y.-.6 f j q.~.d.",
"5 1 5 2 % 4 t J I J J i 5 y R K L 3 w d F I.:.k 9.m.T % a <.I.<.",
"1 O r 8 % 5 3 r U I J r r Y W z L 2 w h k L.>.k 4.b.r.f * ` 1.D ",
"2 4 y y 3 q y K I J p t L ! R z p 4 g d a M.d.F 1.8.b...@ > B h ",
"$ & % 6 - 6 q c p q t t R ~ z P 4 q z d a d.j.H 2.u.V.p.B > d : ",
"E T W &.+.E x 9 : - q w Y E 9 ! = q z d a <.j.H F n.v.r.@.v f ; ",
"@.A 6.'.@X}.Y.a.p.8.4.w.8.[ { z & 3 f d a :.L.H k 2.p.l.b.4.> ; ",
"@.h A c.T.+X+X}.+X}.T.Y.V.a.c.8.( T Y A n <.L.:.n o.6.1.y.e.Z ; ",
"v d d } e.V.f.' f.d.0.7.6.o.6.@.i.l.i.4.' <.f.] n o.6.6.e.c.+.7 ",
"$ & * j V [ V a / ] ' | 4.} @.[ ( &.9.[ D D ,.F a v } X.} } ^ d ",
"O = o $ $ 9 9 : * * : : f w z w 6 v x l x A ) v j ^ +.@.} v f 7 ",
". o . O O % X X - $ =   $ $ % % % % - % 3 ; 7 3 $ 9 z v C f 6 6 ",
"O O . + . O o % % X = . O O O O % o 1 % 1 X X o o % & X & & % % ",
". X . % . + X + . . 2 o O + + + + + 1 + O O % % O O % % $ & % % "
};
