/* XPM */
static char *_367863e1fc44320ab05eafedbe724d7rzkLp9KGomjfPdXp[] = {
/* columns rows colors chars-per-pixel */
"32 32 219 2 ",
"   c #000A1C",
".  c #001F3F",
"X  c #00213D",
"o  c #012644",
"O  c #022945",
"+  c #032C4B",
"@  c #092C4A",
"#  c #04314E",
"$  c #0A324D",
"%  c #0D3147",
"&  c #012F51",
"*  c #023453",
"=  c #0B3551",
"-  c #0E3A55",
";  c #063C5F",
":  c #093E5E",
">  c #033857",
",  c #133A56",
"<  c #1A3B4E",
"1  c #043E63",
"2  c #11405C",
"3  c #21475E",
"4  c #0F4362",
"5  c #074367",
"6  c #134464",
"7  c #15496D",
"8  c #104668",
"9  c #1B5574",
"0  c #1A5D7E",
"q  c #185275",
"w  c #1A4E73",
"e  c #25526C",
"r  c #2D5A75",
"t  c #225779",
"y  c #255C7C",
"u  c #2A5C7A",
"i  c #275974",
"p  c #325B77",
"a  c #2F637B",
"s  c #3B677C",
"d  c #2C5F82",
"f  c #235E80",
"g  c #1D668B",
"h  c #2C6283",
"j  c #226789",
"k  c #2F6688",
"l  c #21698C",
"z  c #2C6A8A",
"x  c #2B6887",
"c  c #396B85",
"v  c #366886",
"b  c #3B708F",
"n  c #226D94",
"m  c #257298",
"M  c #2B759C",
"N  c #2D799D",
"B  c #2B7193",
"V  c #3C7495",
"C  c #39799A",
"Z  c #396D92",
"A  c #3D7FA2",
"S  c #327DA2",
"D  c #2A79A0",
"F  c #4C7286",
"G  c #42728E",
"H  c #4A748C",
"J  c #437083",
"K  c #59798A",
"L  c #437694",
"P  c #457B93",
"I  c #4A7A94",
"U  c #4D7D9B",
"Y  c #447997",
"T  c #5F7B90",
"R  c #697F8C",
"E  c #3F829F",
"W  c #3B84A5",
"Q  c #3886AD",
"!  c #3887AC",
"~  c #3F8DB1",
"^  c #4C819D",
"/  c #5A889C",
"(  c #638192",
")  c #6B8B96",
"_  c #7A949B",
"`  c #75868E",
"'  c #4487A6",
"]  c #4B84A4",
"[  c #4283AA",
"{  c #4B8BAE",
"}  c #4787AA",
"|  c #5688A6",
" . c #5C8BA4",
".. c #528BAD",
"X. c #5888A8",
"o. c #5992AF",
"O. c #438EB0",
"+. c #4B8FB1",
"@. c #4E92B5",
"#. c #4793B5",
"$. c #5796B7",
"%. c #6C94A4",
"&. c #669BBA",
"*. c #6594B1",
"=. c #7B99A3",
"-. c #7DA1B1",
";. c #66A3C2",
":. c #74A6C3",
">. c #77B1CF",
",. c #8E908B",
"<. c #92938D",
"1. c #848F95",
"2. c #899798",
"3. c #969C99",
"4. c #9EA094",
"5. c #9EA69D",
"6. c #85A3AC",
"7. c #93AAAD",
"8. c #9EADAA",
"9. c #87AAB6",
"0. c #9DB4BC",
"q. c #A0ABA5",
"w. c #A4B1AE",
"e. c #ADB4AC",
"r. c #B4B4A3",
"t. c #B8B7A4",
"y. c #B7B7A8",
"u. c #A7B6B4",
"i. c #B5BCB5",
"p. c #C4BEAB",
"a. c #BBC1B7",
"s. c #CAC3AD",
"d. c #C6C0AA",
"f. c #CBC6B3",
"g. c #C5C5B7",
"h. c #D7CDB8",
"j. c #D6D1BB",
"k. c #DCD6BF",
"l. c #D8D1B7",
"z. c #89B4C6",
"x. c #90BACD",
"c. c #A4BDC6",
"v. c #B3C6C8",
"b. c #A4C8D6",
"n. c #8FC5E1",
"m. c #BCD8E3",
"M. c #C5CCC8",
"N. c #DDD5C3",
"B. c #DFD9C4",
"V. c #DAD9CC",
"C. c #D4D3C6",
"Z. c #C2D4D5",
"A. c #CBD6D4",
"S. c #CBDDDC",
"D. c #C9DAD7",
"F. c #D1D7D2",
"G. c #D3DAD5",
"H. c #DCDED2",
"J. c #D4DEDB",
"K. c #E3DCCB",
"L. c #E7DBCA",
"P. c #E1DDD1",
"I. c #D6E1DC",
"U. c #DDE2DC",
"Y. c #DFE1D4",
"T. c #E7E0CE",
"R. c #E2E1D4",
"E. c #E3E5DB",
"W. c #EEE6D9",
"Q. c #E6E8DA",
"!. c #E9EADD",
"~. c #E9E3D5",
"^. c #F0E8DB",
"/. c #C0DFE4",
"(. c #CDE2E4",
"). c #C6E2E6",
"_. c #DDEBEE",
"`. c #D8E4E3",
"'. c #DEEDF0",
"]. c #E1EEEE",
"[. c #E9ECE5",
"{. c #E5F1EF",
"}. c #EAF0EE",
"|. c #F9F7EC",
" X c #F6F2E7",
".X c #E1EFF1",
"XX c #E5F1F2",
"oX c #EBF4F4",
"OX c #EFF8F7",
"+X c #EEF7F9",
"@X c #EEF8F9",
"#X c #F2F6F4",
"$X c #F4F9F5",
"%X c #F6FBF7",
"&X c #F6F9F6",
"*X c #F3F8F5",
"=X c #F8FAF7",
"-X c #F9FAF5",
";X c #FAFBF4",
":X c #F1F9FA",
">X c #F5FBFB",
",X c #F6FAF9",
"<X c #F7FCF8",
"1X c #F5FAFD",
"2X c #F2FAFC",
"3X c #F9FBF8",
"4X c #FAFAFA",
"5X c #F9FAFA",
"6X c #FAFDFA",
"7X c #FAFBFD",
"8X c #FAFAFD",
"9X c #FBFFFF",
"0X c #FAFDFE",
"qX c #FCFDFF",
"wX c #FCFFFF",
"eX c #FEFFFF",
"rX c #FDFDFD",
"tX c #FDFCFC",
"yX c #F2F7FA",
/* pixels */
"_._._._._._._.'._._._.'.'.'..X.XXXXXXXXXoXXX+XXX@X@X+XyXyX2X1X1X",
"_._._._._._.'.'._._.'.'.'..X'..XXXXXXXXXoX+X+X+X@X@XyX2XyX2X1XyX",
"_._._._._.].]..X.X.X.X.X.X.XXXXX+X'.+X+XoX+X@X@X2X2X2X2X1X1X1X1X",
"_._._.]..X]..X.X.X.X.X.XXXXX+XXXXX+XXX+X+X@X@X@X2X2X1X1X1X1X8X8X",
"]._.{.{.XX{.XXXXXXXX}.XXXXXXoXoX+X+XOXOX@X:X:X>X1X,X1X3X1X8XqX8X",
"{.{.XXXXXXXXXXXXoXXXoXoX+X+X+X#X+X+X#X:X$X:X1X,X,X1X8X8X9X9X8XwX",
"{.{.{.{.}.XX}.XXoXoXoXoX#X+X#XyX@X:X$X:X>X,X<X,X1X6X5XqXqXqXwXwX",
"{.{.{.XXXX}.oXoXoXoX#X#X+X#XyX#X:X*X,X,X<X,X3X9X3X3X8X8XqXqXqXqX",
"{.oXoXoX{.oX#X#XoX#X#XoXoX#X#X#X5X5X&X-X5X3X3XtX8XqX8X8X8XqXqXqX",
"oX{.}.oXoXoX#X}.#X#X$X;X3X3X-X5X#X-X5XtXqXqX3X3XtXwXwXwXqXwXqXqX",
"}.|.#XoX#X#X#X*X#X#X$X-X=X=X=X3XtXtXtX5X5X8XtXtX3X8XwX8X8XqXqX8X",
"#XoX$X$X*X*X$X$X6X$X$X;X6X=X6X6X&X-X-XtXwXwXwXwXwXwX9X9XwX9XwX9X",
"$X$X$X<X$X$X$X<X6X$X<X<X<X<X$X$X5X3XwXwXwX$X*XXX}.XXoX+XoX+XXX'.",
"$X$X$X$X<X<X6X$X$X$X<X<X6X9X6X6XqX9X*X}.`.G.A.A.A.D.S.S.D.D.Z.Z.",
";X$X$X<X<X6X3X6XrXwX6X#X#X9X6X$X}.].J.G.A.A.D.S.S.I.S.S.S.).S.D.",
";X$X;X;X;X;X=X=X;X;X[.H.G.Y.U.G.F.G.G.G.H.I.I.I.S.I.`.(.).).)./.",
"$X-X;X;X;X;X;X;X!.!.Q.R.Y.Y.U.E.E.[.H.U.Q.Q.Q.!.U.U.I.(./.b.z.z.",
"-X;X|.|. X[.Q.U.Y.Y.T.T.T.K.Y.H.H.P.Q.Q.Q.!.Q.Y.U.`.m.0.-./ P ^ ",
"W.W.~.~.~.R.V.C.V.V.B.B.k.k.B.k.L.L.K.N.V.Y.U.S.v.x.9.%./ ^ V ^ ",
"T.L.L.K.N.N.C.C.C.j.l.l.l.l.l.j.h.N.K.V.F.M.c.9.%./ ^ ^ ^ ..o.&.",
"s.p.p.p.d.d.d.d.d.f.s.s.s.f.f.g.M.C.M.v.0.-./ P E E W W { $.&.>.",
"t.t.p.p.s.s.f.f.p.y.p.g.g.a.a.u.8.7._ ( H J C E E #.#.$.&.>.n.n.",
"r.r.r.t.t.t.r.r.e.r.w.w.7.6.=._ J v a k z B N ! ! ! O.@.;.&.&.>.",
"4.4.3.4.5.5.8.8.2._ ) K F s i 9 0 f j M N m m D ! ! #.@.{ b c H ",
",.,.<.3.1._ _ ) F s a y 9 0 g l l l n n n N S C W +.} v 6 + + - ",
"2.,.R R T F J e u y x j g g M M M m m N W O.#.' z 9 6 : 6 - * + ",
"R T K F H U L Z y h Z C W O.@.@.A A { +.A z q 1 2 # X o = = + + ",
"p r d v G U *.:.X.] Y V C ] ....&...[ V y 4 * o # + O + + O # - ",
"t t f d Z U ..*. . . .X.X.X.U U d 1 1 ; * & & + O @ # O O @ $ - ",
"d t f d Z Y L L U  .*.o.U c e : ; & & & & & @ + + $ = @ O $ - $ ",
"@ 3 r p k v d d d v k q 8 : & & * * = = o o @ @ @ , 2 % % $ $ , ",
"  < p p : : w f t f q 4 1 1 > * > & & & O @ @ O X X O X O X O $ "
};
