/* XPM */
static char *_6a546f8170a401886200f6b711479d9bmEy9XQTOitBMD7S[] = {
/* columns rows colors chars-per-pixel */
"32 32 11 1 ",
"  c None",
". c #070707",
"X c #1A1512",
"o c #1B1916",
"O c #231F19",
"+ c #23201D",
"@ c #2E2A25",
"# c #312220",
"$ c #3C3129",
"% c #454135",
"& c #555145",
/* pixels */
"                                ",
"     .$OOOOOOOOOOOOOOOO#.       ",
"     .$O####OOOOOOOOOOO#.       ",
"     .################O$.       ",
"     O$###############O$O       ",
"     O$################$O       ",
"     O%################%O       ",
"     O%################%O       ",
"     O%%%%%%%%%%%%%%%%%%O       ",
"     O$$$$$$$$$$$$$$$$$$O       ",
"      OOOOOOOOOOOOOOOOOO        ",
"      XXXXXXXXXXXXXXXXXX        ",
"      XO#OOOOOOOOO##OOOX        ",
"      X#O%%%#&&&&#O%%%OX        ",
"      X#O$$$O%$$%OO$$$OX        ",
"      X##OOOO%$$%O#OOO#X        ",
"      XOO&&&O%$$%OO&&&OX        ",
"      XOO$$%O%$$%OO%$%OX        ",
"      OOO$$%O$$$$OO%$%OO        ",
"      OOO$$$O$$$$OO$$$OO        ",
"      O##OOOO$$$$O#OOO#O        ",
"     oXOO&&%O$$$$OO%&%OXo       ",
"     $XOO$$%O$$$$OO%$%OX$       ",
"     $XOO$$%#$$$$#O$$%OX$       ",
"     %+##OOO#OOOO##OOO#+$       ",
"     %+OOOOOOXXXXOOOOOO+%       ",
"     %$$@$$@$$$$$$@@$@$$%       ",
"     %$$$$$$$$$$$$$$$$$$%       ",
"     @@@@@@@@@@@@@@@@@@@@       ",
"     @@@@@@@@@@@@@@@@@@@@       ",
"     ++++++++++++++++++++       ",
"                                "
};
